PathFileType  4	(X/Y/Z) C:\Users\antoi\Documents\MyRepositories\mobilecap\ResultsAnalysis
DataRate	CameraRate	NumFrames	NumMarkers	Units	OrigDataRate	OrigDataStartFrame	OrigNumFrames
100.0	100.0	4	51	mm	100.0	665	1328
Frame#	Time	r_knee			r_shank_antsup			r_ankle			r_calc			r_5meta			r_toe			L_knee			L_shank_antsup			L_ankle			L_calc			L_5meta			L_toe			r_sh2			r_sh3			r_sh4			L_sh2			L_sh3			r_thigh1			r_thigh2			r_thigh3			r_thigh4			r_thigh5			L_thigh1			L_thigh2			L_thigh3			L_thigh4			r.ASIS			r.PSIS			L.ASIS			L.PSIS			C7			R_Shoulder			L_Shoulder			R_Sternum			L_Sternum			R_humerus			R_elbow_med			R_elbow_lat			R_forearm			R_wrist_radius			R_wrist_ulna			L_humerus			L_elbow_med			L_elbow_lat			L_forearm			L_wrist_radius			L_wrist_ulna			R_HJC			L_HJC			R_HJC_reg			L_HJC_reg			
		X1	Y1	Z1	X2	Y2	Z2	X3	Y3	Z3	X4	Y4	Z4	X5	Y5	Z5	X6	Y6	Z6	X7	Y7	Z7	X8	Y8	Z8	X9	Y9	Z9	X10	Y10	Z10	X11	Y11	Z11	X12	Y12	Z12	X13	Y13	Z13	X14	Y14	Z14	X15	Y15	Z15	X16	Y16	Z16	X17	Y17	Z17	X18	Y18	Z18	X19	Y19	Z19	X20	Y20	Z20	X21	Y21	Z21	X22	Y22	Z22	X23	Y23	Z23	X24	Y24	Z24	X25	Y25	Z25	X26	Y26	Z26	X27	Y27	Z27	X28	Y28	Z28	X29	Y29	Z29	X30	Y30	Z30	X31	Y31	Z31	X32	Y32	Z32	X33	Y33	Z33	X34	Y34	Z34	X35	Y35	Z35	X36	Y36	Z36	X37	Y37	Z37	X38	Y38	Z38	X39	Y39	Z39	X40	Y40	Z40	X41	Y41	Z41	X42	Y42	Z42	X43	Y43	Z43	X44	Y44	Z44	X45	Y45	Z45	X46	Y46	Z46	X47	Y47	Z47	X48	Y48	Z48	X49	Y49	Z49	X50	Y50	Z50	X51	Y51	Z51	

665	6.64000000	-251.47908	557.68697	-446.75824	-215.94878	438.69902	-437.89491	-292.27775	99.97135	-412.96755	-351.76149	64.26579	-460.29213	-163.81630	37.81520	-346.11183	-119.27769	59.70083	-415.14862	-283.03036	549.24825	-877.62943	-231.60099	447.30152	-879.43631	-294.59714	98.24369	-916.29331	-354.96812	66.16026	-870.27188	-151.25945	34.37172	-953.66213	-118.65976	59.19397	-885.44558	-209.62163	323.08579	-442.49082	-284.07730	432.11052	-400.43095	-272.36350	317.39213	-384.59257	-317.85023	449.03216	-911.15079	-293.79541	333.69632	-943.16042	-147.99195	790.15442	-474.96190	-151.85899	676.87453	-475.81017	-190.49036	654.29848	-425.21650	-245.68029	788.96895	-415.84985	-243.82933	670.08094	-422.43206	-204.27660	804.54426	-878.15065	-198.31616	667.85713	-884.12833	-316.20722	798.61390	-889.30798	-308.65000	660.44910	-886.93215	-171.39015	1051.12673	-517.83062	-373.67652	1097.04071	-601.17146	-179.59585	1044.81373	-789.20355	-377.61058	1098.63826	-699.64201	-280.42669	1587.36244	-650.42175	-195.01951	1512.56322	-464.44431	-192.93913	1530.24818	-823.68994	-144.93393	1499.00624	-629.53378	-147.72208	1495.87421	-671.06902	-174.72567	1346.94093	-390.47105	-245.82931	1125.03110	-418.15397	-204.12130	1152.76103	-340.13891	-89.09155	1230.12353	-433.14547	-7.09909	1269.10074	-501.88311	18.47923	1235.05266	-500.76429	-168.09741	1367.37307	-916.58201	-242.63653	1143.02937	-925.80771	-181.67056	1179.28836	-980.75849	-104.32283	1248.17551	-854.99820	-18.91619	1276.08511	-783.88997	6.05573	1236.33693	-792.63950	-259.69582	976.51916	-553.15096	-263.69204	961.74427	-765.99323	-249.73800	969.21912	-554.82037	-256.89260	972.12453	-733.89022	
666	6.65000000	-252.19075	557.67960	-447.13361	-216.69427	438.80246	-438.04304	-292.27297	100.06562	-412.95788	-351.70624	64.25064	-460.19709	-163.84282	37.80856	-346.11710	-119.27819	59.71152	-415.13240	-283.25023	549.25579	-877.54468	-231.85210	447.39871	-879.48448	-294.64701	98.29922	-916.25099	-354.94884	66.21077	-870.29768	-151.27089	34.37312	-953.67856	-118.63408	59.17903	-885.43474	-210.10587	323.44967	-442.40413	-284.84689	432.41334	-400.42697	-272.73510	317.53618	-384.82980	-318.05459	449.10274	-911.14378	-293.89844	333.74853	-943.12281	-147.99208	790.07501	-475.00032	-152.16869	676.87480	-475.85011	-190.91680	654.40426	-425.38877	-245.74575	789.03418	-416.06624	-244.32752	670.15893	-422.73561	-203.93014	804.45500	-878.15945	-198.26836	667.73844	-884.06377	-315.90765	798.72144	-889.41868	-308.63670	660.63326	-887.07929	-171.03059	1051.25934	-517.91589	-373.26348	1096.88632	-601.59098	-178.99905	1044.86385	-789.37431	-377.17550	1098.62727	-699.89757	-280.63113	1587.41170	-650.72334	-195.26782	1512.55651	-464.71594	-192.95032	1530.32886	-823.92211	-145.12145	1499.15574	-629.88274	-147.82501	1495.95669	-671.31297	-174.85350	1347.03572	-390.69510	-245.78475	1125.09437	-418.19127	-204.01809	1152.82086	-340.35338	-89.17039	1230.31864	-433.27937	-7.19613	1269.44167	-502.03870	18.38329	1235.47812	-500.89901	-168.05424	1367.38482	-916.67262	-242.56735	1143.05892	-925.80146	-181.60899	1179.27531	-980.78583	-104.36374	1248.35083	-855.06474	-19.08082	1276.37934	-783.88251	6.00087	1236.79347	-792.52368	-259.24940	976.54691	-553.36012	-263.04111	961.74802	-766.20453	-249.13134	968.98850	-555.06000	-256.25972	972.16116	-734.17950	
667	6.66000000	-252.88397	557.71986	-447.54546	-217.40600	439.00258	-438.18058	-292.29976	100.09733	-412.96031	-351.65680	64.24296	-460.13680	-163.87418	37.81193	-346.09176	-119.25838	59.70754	-415.07064	-283.41172	549.29153	-877.54687	-232.10343	447.47111	-879.58529	-294.69268	98.34841	-916.22854	-354.94605	66.22285	-870.28011	-151.26203	34.37820	-953.68514	-118.60191	59.16267	-885.44468	-210.56569	323.70624	-442.35771	-285.54343	432.61018	-400.39523	-273.10767	317.75518	-385.04723	-318.31053	449.14577	-911.14703	-294.11291	333.81458	-943.11058	-148.01776	790.03639	-475.01468	-152.45320	676.83127	-475.84074	-191.23006	654.43613	-425.49109	-245.87389	789.07747	-416.25615	-244.81107	670.23833	-422.96570	-203.56092	804.38542	-878.21047	-198.20411	667.63119	-884.03164	-315.62976	798.77452	-889.65098	-308.59151	660.76047	-887.27699	-170.76980	1051.37701	-518.08134	-372.89958	1096.73848	-601.88727	-178.47628	1044.91258	-789.56418	-376.87331	1098.63829	-700.00790	-280.79392	1587.39000	-650.96558	-195.57014	1512.54045	-465.03126	-192.98887	1530.40317	-824.29476	-145.31110	1499.26376	-630.18480	-147.93771	1496.05240	-671.50424	-174.95611	1347.14599	-390.98906	-245.14011	1124.88132	-418.74774	-203.87719	1152.86873	-340.51295	-89.18330	1230.55669	-433.34358	-7.26626	1269.76141	-502.22802	18.41766	1236.09729	-501.03911	-167.99705	1367.35917	-916.78977	-242.36582	1143.04414	-925.79827	-181.43317	1179.21009	-980.83261	-104.34627	1248.53992	-855.12665	-19.17651	1276.84670	-784.00610	6.03902	1237.41700	-792.52370	-258.85599	976.56043	-553.54960	-262.54010	961.77220	-766.39658	-248.53901	968.76649	-555.31762	-255.79311	972.23446	-734.43885	
668	6.67000000	-253.53866	557.88393	-447.78955	-218.02311	439.27560	-438.22293	-292.34687	100.01052	-412.98430	-351.65194	64.25185	-460.15714	-163.90401	37.73167	-346.05168	-119.24792	59.67885	-414.98366	-283.54501	549.33322	-877.64489	-232.27698	447.51892	-879.69036	-294.72291	98.38465	-916.25509	-354.95882	66.21734	-870.26761	-151.24370	34.38455	-953.71076	-118.57045	59.15185	-885.49530	-210.99756	323.84650	-442.37960	-286.14357	432.61943	-400.58431	-273.49944	317.93400	-385.19752	-318.51565	449.16893	-911.20799	-294.34551	333.85623	-943.16652	-148.07073	790.00954	-474.99534	-152.71890	676.79110	-475.79197	-191.58619	654.40605	-425.55811	-246.04873	789.16407	-416.46873	-245.21391	670.32107	-423.05930	-203.21276	804.32485	-878.37528	-198.12451	667.50804	-884.03164	-315.26519	798.86810	-890.05574	-308.51721	660.81400	-887.51494	-170.51799	1051.47668	-518.28488	-372.63012	1096.61176	-602.06398	-178.05350	1044.93408	-789.74535	-376.60086	1098.49208	-700.21302	-280.92719	1587.32879	-651.16643	-195.86222	1512.52493	-465.34974	-193.03226	1530.47850	-824.73045	-145.47874	1499.30797	-630.41046	-148.05156	1496.15330	-671.72801	-175.03348	1347.22823	-391.24570	-244.11651	1124.40913	-419.65961	-203.70020	1152.92060	-340.65759	-89.08440	1230.88098	-433.41278	-7.25602	1270.20288	-502.38169	18.53630	1236.77682	-501.14962	-167.86205	1367.35745	-916.99951	-242.06837	1142.90225	-925.76810	-181.13653	1179.05942	-980.84846	-104.27059	1248.75718	-855.22308	-19.20525	1277.40462	-784.12698	6.15401	1238.01177	-792.53643	-258.47862	976.55612	-553.72030	-262.09522	961.72666	-766.56556	-248.13217	968.77868	-555.50957	-255.37787	972.20995	-734.61508	
